<svg width="336" height="246" viewBox="0 0 336 246" fill="none" xmlns="http://www.w3.org/2000/svg">
<g filter="url(#filter0_d)">
<rect x="10.917" y="10" width="315" height="225.322" rx="10" fill="white"/>
</g>
<path d="M124.636 43.9375H127.589V55.9024C127.589 57.5352 127.077 58.8321 126.054 59.793C125.038 60.7539 123.694 61.2344 122.022 61.2344C120.241 61.2344 118.866 60.7852 117.897 59.8867C116.929 58.9883 116.444 57.7383 116.444 56.1367H119.397C119.397 57.043 119.62 57.7266 120.065 58.1875C120.519 58.6407 121.171 58.8672 122.022 58.8672C122.819 58.8672 123.452 58.6055 123.921 58.0821C124.397 57.5508 124.636 56.8203 124.636 55.8907V43.9375ZM130.179 54.543C130.179 53.3008 130.425 52.1836 130.917 51.1914C131.409 50.1914 132.101 49.4258 132.991 48.8946C133.882 48.3555 134.905 48.086 136.062 48.086C137.772 48.086 139.159 48.6367 140.222 49.7383C141.292 50.8399 141.87 52.3008 141.956 54.1211L141.968 54.7891C141.968 56.0391 141.726 57.1563 141.241 58.1407C140.765 59.125 140.077 59.8867 139.179 60.4258C138.288 60.9649 137.257 61.2344 136.085 61.2344C134.296 61.2344 132.862 60.6407 131.784 59.4532C130.714 58.2578 130.179 56.668 130.179 54.6836V54.543ZM133.026 54.7891C133.026 56.0938 133.296 57.1172 133.835 57.8594C134.374 58.5938 135.124 58.961 136.085 58.961C137.046 58.961 137.792 58.586 138.323 57.836C138.862 57.086 139.132 55.9883 139.132 54.543C139.132 53.2617 138.854 52.2461 138.3 51.4961C137.753 50.7461 137.007 50.3711 136.062 50.3711C135.132 50.3711 134.394 50.7422 133.847 51.4844C133.3 52.2188 133.026 53.3203 133.026 54.7891ZM147.183 49.7032C148.112 48.625 149.288 48.086 150.71 48.086C153.413 48.086 154.784 49.6289 154.823 52.7149V61H151.976V52.8203C151.976 51.9453 151.784 51.3282 151.401 50.9688C151.026 50.6016 150.472 50.418 149.737 50.418C148.597 50.418 147.745 50.9258 147.183 51.9414V61H144.335V43H147.183V49.7032ZM160.354 48.3203L160.437 49.7852C161.374 48.6524 162.604 48.086 164.128 48.086C166.769 48.086 168.112 49.5977 168.159 52.6211V61H165.312V52.7852C165.312 51.9805 165.136 51.3867 164.784 51.0039C164.44 50.6133 163.874 50.418 163.085 50.418C161.937 50.418 161.081 50.9375 160.519 51.9766V61H157.671V48.3203H160.354ZM177.323 61V43.9375H182.362C183.87 43.9375 185.206 44.2735 186.37 44.9453C187.542 45.6172 188.448 46.5703 189.089 47.8047C189.729 49.0391 190.05 50.4532 190.05 52.0469V52.9024C190.05 54.5196 189.726 55.9414 189.077 57.168C188.437 58.3946 187.519 59.3399 186.323 60.0039C185.136 60.668 183.772 61 182.233 61H177.323ZM180.288 46.3282V58.6328H182.222C183.776 58.6328 184.968 58.1485 185.796 57.1797C186.632 56.2032 187.058 54.8047 187.073 52.9844V52.0352C187.073 50.1836 186.671 48.7696 185.866 47.793C185.062 46.8164 183.894 46.3282 182.362 46.3282H180.288ZM192.194 54.543C192.194 53.3008 192.44 52.1836 192.933 51.1914C193.425 50.1914 194.116 49.4258 195.007 48.8946C195.897 48.3555 196.921 48.086 198.077 48.086C199.788 48.086 201.175 48.6367 202.237 49.7383C203.308 50.8399 203.886 52.3008 203.972 54.1211L203.983 54.7891C203.983 56.0391 203.741 57.1563 203.257 58.1407C202.78 59.125 202.093 59.8867 201.194 60.4258C200.304 60.9649 199.272 61.2344 198.101 61.2344C196.312 61.2344 194.878 60.6407 193.8 59.4532C192.729 58.2578 192.194 56.668 192.194 54.6836V54.543ZM195.042 54.7891C195.042 56.0938 195.312 57.1172 195.851 57.8594C196.39 58.5938 197.14 58.961 198.101 58.961C199.062 58.961 199.808 58.586 200.339 57.836C200.878 57.086 201.147 55.9883 201.147 54.543C201.147 53.2617 200.87 52.2461 200.315 51.4961C199.769 50.7461 199.022 50.3711 198.077 50.3711C197.147 50.3711 196.409 50.7422 195.862 51.4844C195.315 52.2188 195.042 53.3203 195.042 54.7891ZM211.976 61.2344C210.171 61.2344 208.706 60.668 207.581 59.5352C206.464 58.3946 205.905 56.8789 205.905 54.9883V54.6367C205.905 53.3711 206.147 52.2422 206.632 51.25C207.124 50.25 207.812 49.4727 208.694 48.918C209.577 48.3633 210.562 48.086 211.647 48.086C213.374 48.086 214.706 48.6367 215.644 49.7383C216.589 50.8399 217.062 52.3985 217.062 54.4141V55.5625H208.776C208.862 56.6094 209.21 57.4375 209.819 58.0469C210.437 58.6563 211.21 58.961 212.14 58.961C213.444 58.961 214.507 58.4336 215.327 57.3789L216.862 58.8438C216.354 59.6016 215.675 60.1914 214.823 60.6133C213.979 61.0274 213.03 61.2344 211.976 61.2344ZM211.636 50.3711C210.854 50.3711 210.222 50.6446 209.737 51.1914C209.261 51.7383 208.956 52.5 208.823 53.4766H214.249V53.2657C214.187 52.3125 213.933 51.5938 213.487 51.1094C213.042 50.6172 212.425 50.3711 211.636 50.3711Z" fill="#474E54"/>
<ellipse cx="65.917" cy="75" rx="35" ry="35" fill="#F6F8FA"/>
<mask id="mask0" mask-type="alpha" maskUnits="userSpaceOnUse" x="30" y="40" width="71" height="70">
<ellipse cx="65.917" cy="75" rx="35" ry="35" fill="#474E54"/>
</mask>
<g mask="url(#mask0)">
<path d="M73.4161 82.6599C72.9481 82.4777 72.4211 82.7096 72.239 83.1777C72.049 83.6664 71.7213 83.9532 71.2913 84.0069C70.7846 84.0705 70.2491 83.7993 69.8931 83.3003C68.3112 81.0831 66.701 80.4871 64.7239 81.4104C62.747 80.4871 61.1366 81.0832 59.5546 83.3003C59.1985 83.7994 58.6627 84.0703 58.1563 84.0069C57.7264 83.9532 57.3987 83.6663 57.2086 83.1777C57.0265 82.7097 56.4997 82.4777 56.0316 82.6599C55.5636 82.8419 55.3318 83.3689 55.5138 83.8369C55.9483 84.954 56.8294 85.6737 57.9308 85.8114C58.0545 85.8269 58.1783 85.8344 58.3018 85.8344C59.3473 85.8343 60.3692 85.2898 61.035 84.3564C62.4373 82.3909 63.229 82.6322 64.2764 83.224C64.2825 83.2276 64.289 83.2301 64.2952 83.2335C64.3097 83.2413 64.3245 83.2487 64.3394 83.2557C64.3529 83.262 64.3663 83.2679 64.3799 83.2735C64.3928 83.2787 64.4057 83.2836 64.4188 83.2883C64.4346 83.2939 64.4503 83.2992 64.4662 83.3039C64.4779 83.3073 64.4895 83.3104 64.5013 83.3134C64.5184 83.3178 64.5353 83.3218 64.5525 83.325C64.5643 83.3273 64.5761 83.329 64.5878 83.3309C64.6046 83.3334 64.6214 83.3357 64.6381 83.3373C64.6516 83.3385 64.6651 83.3392 64.6785 83.3399C64.6935 83.3407 64.7085 83.3414 64.7234 83.3414C64.7393 83.3414 64.755 83.3407 64.7708 83.3399C64.7834 83.3393 64.796 83.3387 64.8086 83.3375C64.8262 83.3358 64.8438 83.3334 64.8613 83.3307C64.8724 83.329 64.8834 83.3273 64.8943 83.3253C64.9121 83.3219 64.9298 83.3176 64.9475 83.3132C64.9586 83.3104 64.9696 83.3075 64.9805 83.3043C64.997 83.2995 65.0133 83.294 65.0296 83.2881C65.0422 83.2836 65.0546 83.2788 65.067 83.2739C65.0809 83.2682 65.0947 83.262 65.1085 83.2556C65.1232 83.2488 65.1376 83.2415 65.152 83.2339C65.1583 83.2305 65.1648 83.2278 65.1711 83.2243C66.2191 82.6322 67.0107 82.3915 68.4126 84.3567C69.0785 85.2902 70.1002 85.8347 71.1458 85.8347C71.2693 85.8347 71.3932 85.8271 71.5168 85.8117C72.6184 85.6739 73.4994 84.9543 73.9341 83.8372C74.116 83.3689 73.8842 82.8419 73.4161 82.6599Z" fill="#474E54"/>
<path d="M70.7254 72.1383C68.7637 72.1383 67.098 73.4275 66.5297 75.203C65.334 74.774 64.114 74.774 62.9183 75.203C62.3498 73.4274 60.6842 72.1382 58.7224 72.1382C56.2935 72.1382 54.3176 74.1141 54.3176 76.543C54.3176 78.9719 56.2935 80.9479 58.7224 80.9479C60.9619 80.9479 62.8149 79.2678 63.0907 77.1021C64.196 76.5559 65.252 76.5559 66.3574 77.1021C66.6331 79.2678 68.4862 80.9479 70.7255 80.9479C73.1543 80.9479 75.1304 78.9719 75.1304 76.543C75.1304 74.1141 73.1542 72.1383 70.7254 72.1383ZM58.7222 79.1294C57.2961 79.1294 56.1359 77.9693 56.1359 76.5431C56.1359 75.117 57.2961 73.9569 58.7222 73.9569C60.1483 73.9569 61.3086 75.117 61.3086 76.5431C61.3086 77.9693 60.1483 79.1294 58.7222 79.1294ZM70.7254 79.1294C69.2992 79.1294 68.1391 77.9693 68.1391 76.5431C68.1391 75.117 69.2992 73.9569 70.7254 73.9569C72.1515 73.9569 73.3117 75.117 73.3117 76.5431C73.3117 77.9693 72.1515 79.1294 70.7254 79.1294Z" fill="#474E54"/>
<path d="M83.6512 73.563C83.9791 72.9842 84.1575 72.3244 84.1575 71.6482C84.1575 70.7907 83.8778 69.9974 83.4051 69.3545C86.0372 66.5986 87.414 63.1896 87.1127 60.0849C86.9961 58.8834 86.3448 57.5529 85.2791 56.3383C84.1429 55.0436 82.5861 53.9257 80.7767 53.1051C78.25 51.9592 73.9621 50.8268 67.8847 51.9386C64.2003 52.6127 60.3358 54.0194 56.3344 56.1376C55.4271 54.6723 53.5565 52.7647 51.4301 52.3593C50.1417 52.1141 48.9778 52.5997 48.1522 53.7266C47.5576 54.5382 47.2701 55.4916 47.1473 55.8988C47.1345 55.9416 47.1242 55.9768 47.1156 56.0029C47.0057 56.2656 47.0232 56.5743 47.1667 56.8221C47.4416 57.2965 47.8608 57.3083 48.5552 57.3278C49.4631 57.3532 51.5881 57.4131 52.8155 58.1625C51.5101 58.9725 50.1923 59.8536 48.8627 60.8076C48.4548 61.1004 48.3613 61.6685 48.6541 62.0765C48.9469 62.4845 49.5149 62.5779 49.923 62.2851C52.1164 60.7111 54.2737 59.3404 56.3882 58.1748C56.4018 58.1672 56.4156 58.1603 56.4286 58.1522C60.5345 55.8933 64.4786 54.4105 68.2118 53.7275C73.8266 52.6999 77.7351 53.7226 80.0255 54.7613C83.4344 56.3072 85.1504 58.6957 85.3025 60.2607C85.5519 62.8306 84.3009 65.812 82.012 68.1792C81.7521 68.0487 81.476 67.9459 81.1869 67.8762V66.6546C81.5713 66.639 81.889 66.6237 82.0941 66.6081C82.5948 66.5697 82.9697 66.1328 82.9314 65.6321C82.893 65.1315 82.4569 64.756 81.9553 64.7948C81.6431 64.8187 80.968 64.8441 80.2419 64.8704L80.0888 64.8764C80.0085 64.8795 79.928 64.8827 79.8474 64.8858C79.6702 64.8929 79.4933 64.8999 79.3193 64.9071C78.9399 64.9227 78.5765 64.9388 78.266 64.9559C78.2657 64.9559 78.2656 64.9559 78.2655 64.9559C72.0759 65.2988 59.1963 66.0122 50.8269 68.9836C50.8268 68.9836 50.8268 68.9836 50.8268 68.9836H50.8267C50.7879 68.9974 50.7456 69.0136 50.6998 69.0319C50.6906 69.0355 50.6796 69.0404 50.6702 69.0442C50.538 69.0981 50.3803 69.1683 50.1924 69.2558C50.1769 69.2631 50.1593 69.2714 50.1434 69.279C50.0908 69.3036 50.038 69.3284 49.9812 69.3555C49.7577 69.4619 49.5012 69.5868 49.2102 69.729L48.8403 69.9093C48.6182 70.0175 48.3471 70.1485 48.2214 70.2015C47.7586 70.3963 47.5414 70.9295 47.7362 71.3924C47.8003 71.5448 47.9025 71.6686 48.0255 71.7618C46.1743 71.2399 44.9529 70.2067 44.6489 68.8832C44.338 67.5295 45.0356 66.0534 46.56 64.8357L46.6997 64.7248C46.8089 64.6382 46.9178 64.5517 47.0266 64.4665C47.4219 64.1568 47.4914 63.5853 47.1819 63.1899C46.8721 62.7945 46.3007 62.7251 45.9054 63.0346C45.7933 63.1223 45.6814 63.2112 45.569 63.3004L45.428 63.4123C43.3329 65.0858 42.4029 67.2282 42.8765 69.2904C43.2651 70.9818 44.5343 72.3298 46.4414 73.133C45.9663 73.7789 45.6876 74.5754 45.6876 75.4333C45.6876 75.6415 45.7043 75.8486 45.7376 76.053C44.6191 77.0479 43.9671 78.4792 43.9671 79.9931C43.9671 80.889 44.1964 81.765 44.6272 82.5438C44.8641 84.73 46.7183 86.4117 48.9428 86.4117H52.0024C53.5099 89.1642 55.8602 91.3499 58.7099 92.6481V94.6367H58.3062C58.2341 94.6367 58.1606 94.6379 58.079 94.6392C58.0156 94.6406 57.9523 94.643 57.8899 94.6454C57.8867 94.6455 57.8836 94.6458 57.8804 94.6459C57.8554 94.647 57.8306 94.6486 57.8056 94.6499C57.7789 94.6513 57.7523 94.6521 57.7258 94.6541C57.671 94.6568 57.6145 94.6606 57.551 94.6649L57.5085 94.6686C57.4918 94.6698 57.475 94.6715 57.4584 94.6728C57.4315 94.675 57.4045 94.6772 57.3778 94.6797C57.3574 94.6815 57.3373 94.6831 57.3166 94.6849L57.3002 94.6865C57.2888 94.6875 57.2775 94.6887 57.2662 94.6903C57.2644 94.6904 57.2626 94.6906 57.2608 94.6909C57.1817 94.6987 57.1042 94.708 57.0328 94.7173C57.0214 94.7188 57.0097 94.7203 56.9982 94.7218C56.9825 94.7238 56.9669 94.7257 56.9514 94.7278C56.897 94.735 56.842 94.7426 56.7842 94.7516L56.7666 94.7546C56.6986 94.7648 56.6318 94.7762 56.5652 94.788C56.5387 94.7926 56.5123 94.7976 56.4858 94.8024C56.3761 94.8225 56.2651 94.845 56.1534 94.8696C56.1012 94.881 56.0495 94.8935 55.9976 94.9057C55.956 94.9155 55.9146 94.9243 55.8731 94.9346C55.8134 94.9484 55.7538 94.9643 55.6952 94.9805C55.6786 94.9848 55.6606 94.9896 55.6381 94.9959C55.5738 95.0126 55.5095 95.0317 55.4464 95.0512C55.3782 95.07 55.311 95.0908 55.2439 95.1129C55.2404 95.114 55.2369 95.1151 55.2334 95.1162C55.1614 95.1388 55.0907 95.1627 55.0201 95.1881C54.9783 95.2025 54.9374 95.2189 54.8959 95.2338C54.871 95.2428 54.8457 95.2505 54.8208 95.2597C54.812 95.263 54.8036 95.2674 54.7949 95.2709C50.8765 96.7306 48.2603 100.481 48.2603 104.684V112.648C48.2603 113.151 48.6674 113.558 49.1696 113.558H80.2776C80.7799 113.558 81.1869 113.151 81.1869 112.648V104.684C81.1869 100.481 78.5705 96.7305 74.6521 95.2709C74.6433 95.2674 74.6351 95.263 74.6264 95.2597C74.6018 95.2506 74.5768 95.243 74.5522 95.2341C74.5103 95.2191 74.4692 95.2026 74.4271 95.1881C74.3565 95.1627 74.2859 95.1389 74.214 95.1163C74.2103 95.1151 74.2063 95.1139 74.2025 95.1128C74.1356 95.0907 74.0685 95.07 74.0005 95.0513C73.9374 95.0318 73.8724 95.0124 73.7987 94.9932C73.7941 94.9919 73.7892 94.9907 73.7846 94.9895C73.781 94.9885 73.7772 94.9875 73.7736 94.9866C73.7662 94.9846 73.759 94.9826 73.7514 94.9806C73.6929 94.9645 73.6333 94.9485 73.5736 94.9348C73.5319 94.9244 73.4906 94.9156 73.4489 94.9059C73.3972 94.8938 73.3457 94.8813 73.2939 94.8701C73.1806 94.8452 73.0684 94.8224 72.958 94.8023C72.9313 94.7974 72.9046 94.7925 72.8779 94.7879C72.8127 94.7763 72.7481 94.7653 72.6828 94.7555C72.674 94.7539 72.6622 94.752 72.656 94.751C72.6012 94.7425 72.5467 94.735 72.4941 94.7281C72.4798 94.7261 72.4655 94.7245 72.4512 94.7225C72.4418 94.7213 72.4314 94.7198 72.4222 94.7188C72.3443 94.7086 72.2677 94.6996 72.1899 94.6917C72.1857 94.6912 72.1813 94.6907 72.177 94.6903C72.1668 94.6891 72.1567 94.6878 72.1465 94.687L72.13 94.6854C72.1097 94.6836 72.0897 94.682 72.0694 94.6803C72.0415 94.6778 72.0137 94.6756 71.9858 94.6733C71.9693 94.672 71.9526 94.6703 71.9359 94.669L71.8858 94.6648C71.8312 94.6612 71.7755 94.6574 71.7207 94.6547C71.6933 94.6526 71.6662 94.6518 71.6388 94.6504C71.6151 94.6493 71.5917 94.6476 71.5681 94.6466C71.5648 94.6465 71.5613 94.6461 71.5579 94.6461C71.4946 94.6437 71.4312 94.6413 71.3585 94.6397C71.2861 94.6385 71.2129 94.6373 71.1406 94.6373H70.7369V92.6487C73.587 91.3502 75.9375 89.1645 77.4446 86.4123H80.5041C82.8979 86.4123 84.8456 84.4647 84.8456 82.0707C84.8456 81.7536 84.8113 81.4402 84.7437 81.1336C85.4779 80.2063 85.8775 79.0658 85.8775 77.8685C85.8779 76.1278 85.0317 74.5369 83.6512 73.563ZM47.1208 55.9906C47.1312 55.9652 47.1418 55.9453 47.1504 55.9292C47.1396 55.9494 47.1297 55.9698 47.1208 55.9906ZM54.4833 57.1622C53.0867 55.8324 50.697 55.5943 49.2131 55.5302C49.8421 54.1097 50.5672 54.0461 51.0895 54.1455C52.6346 54.4402 54.0654 55.962 54.7402 57.0153C54.6546 57.0643 54.5691 57.1126 54.4833 57.1622ZM46.3054 78.6259C46.2773 78.6475 46.2494 78.6693 46.2219 78.6916C46.1963 78.7122 46.1709 78.7332 46.1458 78.7544C46.1186 78.7773 46.0918 78.8006 46.0653 78.8241C46.0407 78.846 46.0163 78.8679 45.9923 78.8902C45.9806 78.901 45.9684 78.9113 45.9569 78.9223C46.1886 78.2133 46.6477 77.5874 47.2784 77.1508C47.614 76.9185 47.7536 76.4911 47.6199 76.1055C47.5446 75.8881 47.5064 75.662 47.5064 75.4333C47.5064 74.3806 48.294 73.5 49.3385 73.385C49.7993 73.3342 50.1482 72.9448 50.1482 72.4811V71.2949C50.1726 71.283 50.1973 71.2709 50.2222 71.2588V77.7297H48.9431C48.8695 77.7297 48.7964 77.7316 48.7237 77.7353C48.6996 77.7365 48.6758 77.739 48.6519 77.7406C48.6035 77.7439 48.5552 77.7468 48.5074 77.7517C48.4784 77.7546 48.4499 77.7588 48.4211 77.7623C48.3785 77.7674 48.336 77.7721 48.2939 77.7786C48.2633 77.7832 48.2333 77.789 48.203 77.7943C48.1632 77.8012 48.1233 77.8077 48.0839 77.8157C48.0525 77.822 48.0215 77.8295 47.9903 77.8365C47.9526 77.845 47.9148 77.8531 47.8776 77.8626C47.8458 77.8706 47.8145 77.8798 47.7831 77.8885C47.747 77.8986 47.7107 77.9084 47.675 77.9193C47.6433 77.929 47.612 77.9397 47.5806 77.9501C47.5457 77.9616 47.5108 77.973 47.4764 77.9854C47.4451 77.9967 47.4143 78.0088 47.3833 78.0208C47.3493 78.0339 47.3155 78.0469 47.282 78.0608C47.2514 78.0735 47.221 78.0871 47.1907 78.1006C47.1579 78.1151 47.1249 78.1297 47.0924 78.1451C47.0622 78.1594 47.0325 78.1743 47.0028 78.1893C46.9709 78.2053 46.9392 78.2213 46.9076 78.2381C46.8782 78.2537 46.8492 78.2701 46.8202 78.2863C46.7893 78.3038 46.7584 78.3212 46.728 78.3394C46.6993 78.3565 46.6711 78.374 46.643 78.3917C46.613 78.4105 46.5832 78.4294 46.5537 78.4489C46.526 78.4673 46.4986 78.4861 46.4712 78.505C46.4422 78.5252 46.4135 78.5455 46.385 78.5664C46.3582 78.5858 46.3318 78.6058 46.3054 78.6259ZM48.9431 84.593V84.5931C47.6071 84.5931 46.5009 83.5499 46.4249 82.2202C46.4221 82.1701 46.4201 82.1202 46.4201 82.0701C46.4201 80.6796 47.5519 79.5483 48.9431 79.5483H50.2226C50.2233 79.6568 50.2252 79.7652 50.2283 79.8732C50.2283 79.8737 50.2283 79.8742 50.2283 79.8747C50.2319 80.0026 50.2376 80.13 50.2445 80.2572C50.2466 80.296 50.2492 80.3347 50.2517 80.3733C50.2572 80.464 50.2637 80.5546 50.2709 80.6449C50.2743 80.6869 50.2777 80.7288 50.2815 80.7706C50.2902 80.8692 50.3002 80.9675 50.311 81.0656C50.3141 81.094 50.3168 81.1225 50.3199 81.1508C50.3342 81.2746 50.3502 81.3981 50.3678 81.5211C50.3728 81.5564 50.3785 81.5916 50.3838 81.6267C50.3973 81.7169 50.4115 81.807 50.4267 81.8968C50.4341 81.9402 50.4416 81.9835 50.4494 82.0269C50.4649 82.114 50.4814 82.2007 50.4986 82.2872C50.5061 82.3254 50.5134 82.3636 50.5213 82.4017C50.5462 82.5223 50.5723 82.6426 50.6003 82.7624C50.606 82.7869 50.6125 82.8111 50.6183 82.8355C50.6417 82.9331 50.6659 83.0303 50.6913 83.1274C50.7023 83.1696 50.7138 83.2117 50.7252 83.2536C50.7475 83.3359 50.7707 83.4181 50.7946 83.5001C50.8066 83.5414 50.8185 83.5828 50.8309 83.624C50.8613 83.7245 50.8927 83.8247 50.9251 83.9246C50.9315 83.944 50.9373 83.9636 50.9437 83.983C50.9823 84.0999 51.0227 84.2163 51.0645 84.3323C51.0782 84.3705 51.0925 84.4086 51.1065 84.4467C51.1245 84.4955 51.1419 84.5445 51.1604 84.593H48.9431ZM71.1411 96.4556V96.4553C71.2874 96.4553 71.4332 96.4598 71.5785 96.4674C71.5819 96.4676 71.5854 96.4676 71.5888 96.468C71.6001 96.4688 71.6113 96.4696 71.6223 96.4702C71.6287 96.4705 71.6349 96.4709 71.6415 96.4713C71.7787 96.4795 71.9155 96.4905 72.0515 96.5056C72.06 96.5065 72.0683 96.5073 72.0768 96.5082C72.2143 96.5238 72.3511 96.5434 72.4871 96.5658C72.5072 96.5691 72.5276 96.5724 72.548 96.5759C72.6755 96.598 72.8024 96.6234 72.9287 96.6514C72.943 96.6546 72.9574 96.6582 72.9717 96.6615C72.2063 97.8865 71.1755 98.9296 69.9473 99.7142C69.6639 99.8952 69.5036 100.218 69.5303 100.553L69.6668 102.264L67.9142 101.057C67.697 100.907 67.4257 100.859 67.1699 100.925C66.3766 101.131 65.5538 101.236 64.7239 101.236C63.1929 101.236 61.7292 100.891 60.3733 100.21C59.9243 99.9845 59.378 100.166 59.1527 100.614C58.9274 101.063 59.1084 101.61 59.5573 101.835C61.1687 102.644 62.907 103.054 64.7241 103.054C65.5658 103.054 66.4023 102.964 67.2165 102.784L70.2099 104.846C70.3646 104.952 70.545 105.006 70.7256 105.006C70.8823 105.006 71.0393 104.966 71.1803 104.884C71.4842 104.709 71.6599 104.374 71.6321 104.025L71.3859 100.938C72.7531 99.9699 73.8897 98.7203 74.7236 97.274C77.5371 98.6327 79.3688 101.5 79.3688 104.684V111.739H50.0794V104.684C50.0794 101.501 51.9109 98.6331 54.7239 97.2742C55.1816 98.0679 55.732 98.8048 56.3681 99.4721C56.5468 99.6595 56.7863 99.7541 57.0264 99.7541C57.2518 99.7541 57.4777 99.6708 57.6536 99.503C58.0172 99.1565 58.031 98.581 57.6845 98.2175C57.2283 97.7388 56.8241 97.218 56.4761 96.6613C56.4908 96.6579 56.5054 96.6543 56.52 96.6511C56.6457 96.6232 56.7722 96.5977 56.8992 96.5758C56.92 96.5721 56.9407 96.5689 56.9614 96.5655C57.0884 96.5445 57.216 96.5267 57.344 96.5118C57.3664 96.5091 57.3887 96.5064 57.411 96.504C57.5407 96.4899 57.6709 96.4793 57.8016 96.4714C57.8095 96.471 57.8175 96.4703 57.8254 96.4699C57.8365 96.4695 57.8478 96.4687 57.859 96.4678C57.8623 96.4675 57.8659 96.4675 57.8693 96.4671C58.0145 96.4595 58.1602 96.455 58.3067 96.455H59.6585C59.6909 96.455 59.7228 96.4532 59.7543 96.4499C59.7594 96.4494 59.7642 96.4482 59.7693 96.4476C59.7959 96.4444 59.8223 96.4404 59.8481 96.4349C59.8541 96.4337 59.8598 96.4317 59.8657 96.4304C59.8904 96.4246 59.9149 96.4183 59.9388 96.4105C59.9458 96.4082 59.9526 96.4053 59.9597 96.4029C59.9819 96.395 60.0039 96.3869 60.0253 96.3774C60.0337 96.3737 60.0419 96.3694 60.0502 96.3654C60.0695 96.3562 60.0885 96.3468 60.1071 96.3362C60.1167 96.3308 60.1259 96.3248 60.1352 96.3191C60.1517 96.3089 60.1681 96.2985 60.1838 96.2872C60.1939 96.2801 60.2037 96.2726 60.2135 96.265C60.228 96.2539 60.242 96.2425 60.2557 96.2306C60.2656 96.222 60.2751 96.2134 60.2846 96.2043C60.2977 96.1918 60.3103 96.179 60.3225 96.1657C60.328 96.1599 60.3341 96.1547 60.3394 96.1488C60.3427 96.145 60.3453 96.1409 60.3486 96.1373C60.361 96.1229 60.3725 96.1079 60.3839 96.0929C60.391 96.0834 60.3983 96.0742 60.405 96.0646C60.4171 96.0472 60.4283 96.029 60.4392 96.0107C60.4439 96.0028 60.449 95.9952 60.4535 95.9872C60.4667 95.9634 60.4787 95.9388 60.4899 95.9138C60.4912 95.9109 60.4928 95.908 60.4941 95.9051C60.5187 95.8479 60.5377 95.7876 60.5502 95.7249C60.5511 95.7207 60.5514 95.7163 60.5522 95.7119C60.5569 95.686 60.561 95.6599 60.5636 95.6334C60.5648 95.6211 60.5648 95.6087 60.5655 95.5963C60.5664 95.5796 60.5681 95.5629 60.5681 95.546C60.5681 95.5438 60.5677 95.5416 60.5677 95.5394C60.5676 95.5266 60.5664 95.5137 60.5657 95.5009C60.5648 95.4816 60.564 95.4622 60.5619 95.4433C60.5616 95.441 60.5616 95.4387 60.5614 95.4364C60.5397 95.2577 60.5291 95.0936 60.5291 94.9348V93.3348C61.8822 93.7441 63.2879 93.9515 64.724 93.9515C66.1602 93.9515 67.566 93.7441 68.9189 93.3348V94.9348C68.9189 95.0942 68.9084 95.2583 68.8868 95.4364C68.8865 95.4387 68.8865 95.441 68.8863 95.4433C68.8841 95.4622 68.8834 95.4816 68.8824 95.5009C68.8818 95.5137 68.8806 95.5266 68.8805 95.5394C68.8805 95.5416 68.8801 95.5438 68.8801 95.546C68.8801 95.5629 68.8817 95.5796 68.8827 95.5963C68.8834 95.6087 68.8834 95.6211 68.8846 95.6334C68.8871 95.6603 68.8913 95.6867 68.8961 95.7128C68.8968 95.7168 68.8972 95.7208 68.8979 95.7248C68.9104 95.7876 68.9294 95.8479 68.9542 95.9052C68.9552 95.9075 68.9565 95.9097 68.9575 95.912C68.9689 95.9378 68.9812 95.963 68.9948 95.9875C68.9989 95.9949 69.0036 96.0018 69.0079 96.0091C69.0192 96.0281 69.0308 96.0471 69.0434 96.0651C69.0497 96.0741 69.0565 96.0827 69.0632 96.0915C69.0751 96.1074 69.0872 96.1231 69.1002 96.1381C69.1032 96.1416 69.1057 96.1455 69.1088 96.149C69.1137 96.1547 69.1194 96.1596 69.1246 96.1651C69.1374 96.1788 69.1505 96.1922 69.1639 96.205C69.1731 96.2138 69.1825 96.2222 69.1919 96.2305C69.2059 96.2426 69.2202 96.2542 69.2347 96.2656C69.2443 96.273 69.254 96.2804 69.264 96.2875C69.2798 96.2987 69.2962 96.3093 69.3129 96.3196C69.3223 96.3253 69.3314 96.3312 69.3408 96.3366C69.3594 96.3471 69.3785 96.3567 69.3978 96.3659C69.406 96.3699 69.4142 96.3742 69.4225 96.3779C69.444 96.3874 69.4661 96.3956 69.4884 96.4035C69.4953 96.4059 69.5019 96.4087 69.509 96.411C69.533 96.4188 69.5576 96.4252 69.5824 96.431C69.5883 96.4324 69.5938 96.4342 69.5997 96.4355C69.6255 96.441 69.6519 96.445 69.6786 96.4482C69.6837 96.4488 69.6885 96.4499 69.6936 96.4505C69.7251 96.4538 69.757 96.4556 69.7894 96.4556H71.1411ZM77.4065 78.6386V79.4496C77.4065 79.8219 77.3909 80.1914 77.3596 80.5573C77.2242 82.1431 76.7963 83.6655 76.0821 85.0966C74.6992 87.8748 72.3568 90.0451 69.4858 91.208C67.9748 91.8217 66.3726 92.133 64.7239 92.133C63.075 92.133 61.4729 91.8217 59.9611 91.2078C57.0911 90.0451 54.7486 87.875 53.365 85.0963C52.4863 83.3357 52.0409 81.436 52.0409 79.4499V78.6389V70.4899C52.0732 70.4791 52.1052 70.4683 52.1377 70.4576C52.1898 70.4404 52.2421 70.4233 52.2945 70.4064C52.3706 70.3816 52.4469 70.3571 52.5237 70.3328C52.5752 70.3164 52.627 70.3 52.6789 70.2839C52.7578 70.2592 52.8372 70.2348 52.9169 70.2104C52.9673 70.195 53.0179 70.1796 53.0685 70.1644C53.1516 70.1394 53.2351 70.1147 53.3189 70.09C53.367 70.0759 53.4149 70.0617 53.4633 70.0476C53.5526 70.0217 53.6425 69.9961 53.7326 69.9706C53.776 69.9584 53.8193 69.9459 53.8628 69.9338C53.9643 69.9054 54.0663 69.8774 54.1687 69.8496C54.2014 69.8407 54.2338 69.8317 54.2666 69.8228C54.399 69.7872 54.532 69.7518 54.6657 69.717C54.669 69.7161 54.6723 69.7153 54.6756 69.7144C54.9564 69.6413 55.2403 69.5702 55.5269 69.5007C55.5493 69.4952 55.5721 69.4899 55.5946 69.4846C55.7131 69.456 55.832 69.4277 55.9514 69.3997C55.9864 69.3915 56.0217 69.3835 56.0568 69.3753C56.1639 69.3505 56.2712 69.3258 56.3789 69.3014C56.4207 69.2919 56.4626 69.2826 56.5046 69.2733C56.6063 69.2505 56.7083 69.2278 56.8106 69.2055C56.8558 69.1955 56.9012 69.1858 56.9464 69.176C57.0464 69.1543 57.1466 69.1329 57.2471 69.1116C57.2932 69.1019 57.3394 69.0922 57.3856 69.0825C57.4866 69.0615 57.5879 69.0405 57.6892 69.0197C57.7344 69.0105 57.7798 69.0013 57.8251 68.9921C57.9283 68.9713 58.0317 68.9506 58.1354 68.9301C58.1795 68.9214 58.2236 68.9127 58.2678 68.9041C58.3742 68.8832 58.4809 68.8627 58.5877 68.8423C58.6289 68.8344 58.67 68.8265 58.7113 68.8186C58.8243 68.7973 58.9376 68.7762 59.0511 68.7552C59.0859 68.7488 59.1207 68.7422 59.1556 68.7358C59.2818 68.7126 59.4084 68.6899 59.5351 68.6673C59.5572 68.6633 59.5792 68.6593 59.6014 68.6554C60.2111 68.5473 60.8257 68.4454 61.4423 68.3495C61.4544 68.3476 61.4667 68.3458 61.4789 68.344C61.6179 68.3224 61.7569 68.301 61.896 68.2801C61.9234 68.2759 61.9509 68.2718 61.9783 68.2677C62.1029 68.249 62.2276 68.2305 62.3523 68.2123C62.3858 68.2074 62.4193 68.2026 62.4527 68.1977C62.5723 68.1804 62.6919 68.1632 62.8115 68.1462C62.8469 68.1412 62.8823 68.1363 62.9177 68.1313C63.0352 68.1148 63.1528 68.0984 63.2702 68.0823C63.3071 68.0772 63.3438 68.0723 63.3807 68.0672C63.4979 68.0512 63.6153 68.0354 63.7324 68.0199C63.7679 68.0152 63.8036 68.0104 63.8391 68.0057C63.9581 67.9899 64.0771 67.9745 64.196 67.9591C64.2298 67.9548 64.2637 67.9504 64.2975 67.946C64.4221 67.93 64.5468 67.9144 64.6713 67.8989C64.6975 67.8956 64.7237 67.8923 64.7497 67.8891C64.8842 67.8723 65.0184 67.856 65.1526 67.8397C65.1699 67.8377 65.1872 67.8355 65.2045 67.8334C65.9739 67.7408 66.7382 67.6559 67.4923 67.578C67.5052 67.5766 67.5182 67.5753 67.5312 67.574C67.666 67.56 67.8005 67.5464 67.9346 67.533C67.9594 67.5304 67.9841 67.528 68.009 67.5256C68.1316 67.5133 68.2539 67.5012 68.3759 67.4893C68.4061 67.4864 68.4362 67.4835 68.4664 67.4806C68.5831 67.4693 68.6996 67.4582 68.8156 67.4471C68.8479 67.4441 68.8799 67.4411 68.912 67.4381C69.0258 67.4274 69.1394 67.4168 69.2527 67.4064C69.2866 67.4033 69.3206 67.4002 69.3544 67.3971C69.4673 67.3868 69.5798 67.3767 69.692 67.3666C69.723 67.3639 69.7538 67.3612 69.7847 67.3584C69.9011 67.3481 70.017 67.3379 70.1325 67.328C70.1595 67.3257 70.1866 67.3232 70.2135 67.3209C70.3344 67.3105 70.4546 67.3003 70.5745 67.2903C70.5953 67.2886 70.6163 67.2867 70.637 67.2851C70.768 67.274 70.8985 67.2634 71.0282 67.2527C71.0374 67.252 71.0469 67.2511 71.0561 67.2504C71.625 67.2041 72.1819 67.1614 72.724 67.1219C72.7253 67.1217 72.7267 67.1216 72.7281 67.1216C72.8588 67.112 72.9885 67.1028 73.1174 67.0936C73.1339 67.0925 73.1503 67.0913 73.1668 67.0901C73.2807 67.082 73.3942 67.0741 73.5067 67.0662C73.5305 67.0645 73.5541 67.0629 73.5778 67.0614C73.683 67.0541 73.7878 67.0469 73.8917 67.0399C73.9177 67.0382 73.9437 67.0364 73.9696 67.0347C74.0722 67.0278 74.174 67.021 74.2753 67.0143C74.2994 67.0127 74.3234 67.0112 74.3474 67.0096C74.4498 67.0029 74.5517 66.9963 74.6528 66.9897C74.6756 66.9883 74.6985 66.9868 74.7213 66.9853C74.8259 66.9787 74.9298 66.972 75.0328 66.9655C75.0493 66.9645 75.0659 66.9634 75.0825 66.9623C75.1941 66.9553 75.3048 66.9484 75.4145 66.9417C75.4218 66.9412 75.4292 66.9407 75.4365 66.9404C76.1374 66.8972 76.7963 66.8591 77.4063 66.8248V78.6386H77.4065ZM80.5045 84.5931H78.2877C78.3074 84.5412 78.326 84.4889 78.3453 84.4368C78.3575 84.4036 78.37 84.3704 78.382 84.337C78.4247 84.2184 78.466 84.0994 78.5054 83.9798C78.5093 83.968 78.5129 83.9561 78.5168 83.9442C78.552 83.8368 78.5857 83.7289 78.6182 83.6207C78.6297 83.5825 78.6407 83.5441 78.6519 83.5058C78.6767 83.4204 78.7009 83.335 78.7241 83.2491C78.7349 83.2096 78.7456 83.1701 78.756 83.1306C78.7823 83.0302 78.8074 82.9294 78.8316 82.8286C78.8366 82.807 78.8423 82.7855 78.8474 82.7638C78.8756 82.6432 78.902 82.5221 78.9271 82.4007C78.9347 82.3637 78.9416 82.3266 78.949 82.2896C78.9664 82.202 78.983 82.1142 78.9987 82.0262C79.0064 81.9833 79.0139 81.9405 79.0212 81.8974C79.0364 81.8074 79.0506 81.717 79.0642 81.6266C79.0694 81.5914 79.0751 81.5563 79.0802 81.521C79.0977 81.3982 79.1137 81.275 79.128 81.1515C79.1314 81.1219 79.1342 81.0922 79.1374 81.0625C79.148 80.9658 79.1578 80.8691 79.1664 80.772C79.1703 80.7289 79.1737 80.6858 79.1772 80.6426C79.1844 80.5542 79.1905 80.4657 79.1961 80.377C79.1987 80.3362 79.2015 80.2956 79.2036 80.2548C79.2103 80.131 79.2159 80.0071 79.2194 79.8827C79.2196 79.875 79.2198 79.8673 79.22 79.8596C79.2228 79.756 79.2247 79.6522 79.2255 79.5482H80.5049C80.7702 79.5482 81.0287 79.5901 81.273 79.6684C82.0057 79.9037 82.6097 80.4675 82.8791 81.2153C82.8791 81.2155 82.8793 81.2156 82.8793 81.2156C82.9778 81.4896 83.0278 81.7769 83.0278 82.0698C83.0275 83.4612 81.8958 84.5931 80.5045 84.5931ZM83.7825 79.2256C83.7733 79.2149 83.7632 79.205 83.7539 79.1944C83.7369 79.1752 83.7193 79.1567 83.702 79.1379C83.6496 79.081 83.5959 79.0258 83.5407 78.9718C83.5232 78.9547 83.5061 78.9373 83.4882 78.9204C83.4183 78.8543 83.3465 78.7904 83.2724 78.7292C83.2575 78.7168 83.242 78.7053 83.227 78.6932C83.1647 78.6431 83.1011 78.5949 83.0363 78.5482C83.0142 78.5324 82.9923 78.5166 82.9699 78.5012C82.8902 78.4461 82.8093 78.3928 82.7261 78.3432C82.7232 78.3415 82.7202 78.3399 82.7173 78.3382C82.6364 78.2902 82.5535 78.2457 82.4695 78.2029C82.4451 78.1905 82.4206 78.1785 82.396 78.1667C82.3228 78.1311 82.2486 78.0976 82.1733 78.066C82.1569 78.0591 82.1409 78.0516 82.1244 78.0449C82.0347 78.0087 81.9435 77.9758 81.8513 77.9456C81.8276 77.9379 81.8036 77.931 81.7797 77.9236C81.7049 77.9004 81.6294 77.8793 81.5531 77.8603C81.5293 77.8543 81.5056 77.8479 81.4816 77.8423C81.3862 77.8202 81.2899 77.8009 81.1926 77.7851C81.1745 77.7822 81.1563 77.7803 81.1383 77.7776C81.0561 77.7654 80.9731 77.7557 80.8897 77.7481C80.8624 77.7457 80.8353 77.7433 80.8078 77.7413C80.7073 77.7343 80.6064 77.7295 80.5047 77.7295H79.2256V66.731C79.2727 66.7289 79.3208 66.727 79.3686 66.725V68.6777C79.3686 69.1799 79.7758 69.587 80.2779 69.587C81.4143 69.587 82.3389 70.5116 82.3389 71.6481C82.3389 72.2334 82.1009 72.7738 81.6689 73.1697C81.44 73.3793 81.3339 73.6912 81.3875 73.9969C81.4411 74.3025 81.6469 74.5599 81.9332 74.6793C83.2248 75.2179 84.0594 76.4693 84.0594 77.8677C84.0594 78.3414 83.9641 78.8015 83.7825 79.2256Z" fill="#474E54"/>
</g>
<path d="M121.918 76.8604H118.934V80H117.997V72.8906H122.401V73.6621H118.934V76.0938H121.918V76.8604ZM125.809 75.5273C125.673 75.5046 125.525 75.4932 125.365 75.4932C124.773 75.4932 124.371 75.7454 124.159 76.25V80H123.256V74.7168H124.135L124.149 75.3271C124.445 74.8551 124.865 74.6191 125.409 74.6191C125.585 74.6191 125.718 74.6419 125.809 74.6875V75.5273ZM129.711 80C129.659 79.8958 129.616 79.7103 129.584 79.4434C129.164 79.8796 128.663 80.0977 128.08 80.0977C127.559 80.0977 127.131 79.9512 126.796 79.6582C126.464 79.362 126.298 78.9876 126.298 78.5352C126.298 77.985 126.506 77.5586 126.923 77.2559C127.343 76.9499 127.932 76.7969 128.69 76.7969H129.569V76.3818C129.569 76.0661 129.475 75.8154 129.286 75.6299C129.097 75.4411 128.819 75.3467 128.451 75.3467C128.129 75.3467 127.859 75.4281 127.64 75.5908C127.422 75.7536 127.313 75.9505 127.313 76.1816H126.405C126.405 75.918 126.498 75.6641 126.683 75.4199C126.872 75.1725 127.126 74.9772 127.445 74.834C127.767 74.6908 128.121 74.6191 128.505 74.6191C129.113 74.6191 129.59 74.7721 129.935 75.0781C130.28 75.3809 130.459 75.7992 130.472 76.333V78.7646C130.472 79.2497 130.534 79.6354 130.658 79.9219V80H129.711ZM128.212 79.3115C128.495 79.3115 128.763 79.2383 129.017 79.0918C129.271 78.9453 129.455 78.7549 129.569 78.5205V77.4365H128.861C127.754 77.4365 127.201 77.7604 127.201 78.4082C127.201 78.6914 127.295 78.9128 127.484 79.0723C127.673 79.2318 127.915 79.3115 128.212 79.3115ZM132.743 74.7168L132.772 75.3809C133.176 74.873 133.703 74.6191 134.354 74.6191C135.471 74.6191 136.034 75.249 136.044 76.5088V80H135.14V76.5039C135.137 76.123 135.049 75.8415 134.877 75.6592C134.707 75.4769 134.442 75.3857 134.081 75.3857C133.788 75.3857 133.531 75.4639 133.309 75.6201C133.088 75.7764 132.915 75.9814 132.792 76.2354V80H131.888V74.7168H132.743ZM139.525 79.3604C139.847 79.3604 140.129 79.2627 140.37 79.0674C140.611 78.8721 140.744 78.6279 140.77 78.335H141.625C141.609 78.6377 141.504 78.9258 141.312 79.1992C141.12 79.4727 140.863 79.6908 140.541 79.8535C140.222 80.0163 139.883 80.0977 139.525 80.0977C138.806 80.0977 138.233 79.8584 137.806 79.3799C137.383 78.8981 137.172 78.2406 137.172 77.4072V77.2559C137.172 76.7415 137.266 76.2842 137.455 75.8838C137.644 75.4834 137.914 75.1725 138.265 74.9512C138.62 74.7298 139.039 74.6191 139.52 74.6191C140.113 74.6191 140.604 74.7965 140.995 75.1514C141.389 75.5062 141.599 75.9668 141.625 76.5332H140.77C140.744 76.1914 140.614 75.9115 140.38 75.6934C140.149 75.472 139.862 75.3613 139.52 75.3613C139.061 75.3613 138.705 75.5273 138.451 75.8594C138.2 76.1882 138.075 76.665 138.075 77.29V77.4609C138.075 78.0697 138.2 78.5384 138.451 78.8672C138.702 79.196 139.06 79.3604 139.525 79.3604ZM144.833 80.0977C144.117 80.0977 143.534 79.8633 143.085 79.3945C142.636 78.9225 142.411 78.2926 142.411 77.5049V77.3389C142.411 76.8148 142.51 76.3477 142.709 75.9375C142.911 75.5241 143.191 75.2018 143.549 74.9707C143.91 74.7363 144.301 74.6191 144.72 74.6191C145.407 74.6191 145.941 74.8454 146.322 75.2979C146.703 75.7503 146.893 76.3981 146.893 77.2412V77.6172H143.314C143.327 78.138 143.479 78.5596 143.768 78.8818C144.061 79.2008 144.432 79.3604 144.882 79.3604C145.201 79.3604 145.471 79.2952 145.692 79.165C145.914 79.0348 146.107 78.8623 146.273 78.6475L146.825 79.0771C146.382 79.7575 145.718 80.0977 144.833 80.0977ZM144.72 75.3613C144.356 75.3613 144.05 75.4948 143.803 75.7617C143.555 76.0254 143.402 76.3965 143.344 76.875H145.99V76.8066C145.964 76.3477 145.84 75.9928 145.619 75.7422C145.398 75.4883 145.098 75.3613 144.72 75.3613Z" fill="#B2BFC8"/>
<path d="M159.477 80H158.568V73.9795L156.747 74.6484V73.8281L159.335 72.8564H159.477V80ZM166.781 80H162.123V79.3506L164.584 76.6162C164.949 76.2028 165.199 75.8675 165.336 75.6104C165.476 75.3499 165.546 75.0814 165.546 74.8047C165.546 74.4336 165.434 74.1292 165.209 73.8916C164.984 73.654 164.685 73.5352 164.311 73.5352C163.861 73.5352 163.511 73.6637 163.261 73.9209C163.013 74.1748 162.89 74.5296 162.89 74.9854H161.986C161.986 74.3311 162.196 73.8021 162.616 73.3984C163.039 72.9948 163.604 72.793 164.311 72.793C164.971 72.793 165.494 72.9671 165.878 73.3154C166.262 73.6605 166.454 74.1211 166.454 74.6973C166.454 75.3971 166.008 76.2305 165.116 77.1973L163.212 79.2627H166.781V80ZM172.328 73.3984L169.384 80H168.437L171.371 73.6328H167.523V72.8906H172.328V73.3984ZM177.167 77.6123H178.153V78.3496H177.167V80H176.259V78.3496H173.021V77.8174L176.205 72.8906H177.167V77.6123ZM174.047 77.6123H176.259V74.126L176.151 74.3213L174.047 77.6123ZM185.604 76.8604H182.621V80H181.684V72.8906H186.088V73.6621H182.621V76.0938H185.604V76.8604ZM190.165 80C190.113 79.8958 190.071 79.7103 190.038 79.4434C189.618 79.8796 189.117 80.0977 188.534 80.0977C188.013 80.0977 187.585 79.9512 187.25 79.6582C186.918 79.362 186.752 78.9876 186.752 78.5352C186.752 77.985 186.96 77.5586 187.377 77.2559C187.797 76.9499 188.386 76.7969 189.145 76.7969H190.023V76.3818C190.023 76.0661 189.929 75.8154 189.74 75.6299C189.551 75.4411 189.273 75.3467 188.905 75.3467C188.583 75.3467 188.313 75.4281 188.095 75.5908C187.877 75.7536 187.768 75.9505 187.768 76.1816H186.859C186.859 75.918 186.952 75.6641 187.138 75.4199C187.326 75.1725 187.58 74.9772 187.899 74.834C188.222 74.6908 188.575 74.6191 188.959 74.6191C189.568 74.6191 190.045 74.7721 190.39 75.0781C190.735 75.3809 190.914 75.7992 190.927 76.333V78.7646C190.927 79.2497 190.989 79.6354 191.112 79.9219V80H190.165ZM188.666 79.3115C188.949 79.3115 189.218 79.2383 189.472 79.0918C189.726 78.9453 189.91 78.7549 190.023 78.5205V77.4365H189.315C188.209 77.4365 187.655 77.7604 187.655 78.4082C187.655 78.6914 187.75 78.9128 187.938 79.0723C188.127 79.2318 188.37 79.3115 188.666 79.3115ZM193.197 74.7168L193.227 75.3809C193.63 74.873 194.158 74.6191 194.809 74.6191C195.925 74.6191 196.488 75.249 196.498 76.5088V80H195.595V76.5039C195.591 76.123 195.504 75.8415 195.331 75.6592C195.162 75.4769 194.896 75.3857 194.535 75.3857C194.242 75.3857 193.985 75.4639 193.764 75.6201C193.542 75.7764 193.37 75.9814 193.246 76.2354V80H192.343V74.7168H193.197ZM200.937 78.5986C200.937 78.3545 200.844 78.1657 200.658 78.0322C200.476 77.8955 200.155 77.7783 199.696 77.6807C199.241 77.583 198.878 77.4658 198.607 77.3291C198.34 77.1924 198.142 77.0296 198.012 76.8408C197.885 76.652 197.821 76.4274 197.821 76.167C197.821 75.734 198.004 75.3678 198.368 75.0684C198.736 74.7689 199.205 74.6191 199.774 74.6191C200.373 74.6191 200.858 74.7738 201.229 75.083C201.604 75.3923 201.791 75.7878 201.791 76.2695H200.883C200.883 76.0221 200.777 75.8089 200.565 75.6299C200.357 75.4508 200.093 75.3613 199.774 75.3613C199.446 75.3613 199.188 75.4329 199.003 75.5762C198.817 75.7194 198.725 75.9066 198.725 76.1377C198.725 76.3558 198.811 76.5202 198.983 76.6309C199.156 76.7415 199.467 76.8473 199.916 76.9482C200.368 77.0492 200.735 77.1696 201.015 77.3096C201.295 77.4495 201.501 77.6188 201.635 77.8174C201.771 78.0127 201.84 78.252 201.84 78.5352C201.84 79.0072 201.651 79.3864 201.273 79.6729C200.896 79.9561 200.406 80.0977 199.804 80.0977C199.381 80.0977 199.006 80.0228 198.681 79.873C198.355 79.7233 198.1 79.515 197.914 79.248C197.732 78.9779 197.641 78.6865 197.641 78.374H198.544C198.56 78.6768 198.681 78.9176 198.905 79.0967C199.133 79.2725 199.433 79.3604 199.804 79.3604C200.146 79.3604 200.419 79.292 200.624 79.1553C200.832 79.0153 200.937 78.8298 200.937 78.5986Z" fill="#B2BFC8"/>
<circle cx="151.917" cy="77.4598" r="1" fill="#B2BFC8"/>
<path fill-rule="evenodd" clip-rule="evenodd" d="M188.366 111.594H199.213C199.806 111.594 200.347 111.284 200.658 110.766C200.974 110.241 201.002 109.596 200.735 109.04C199.965 107.436 199.536 105.641 199.494 103.851C199.502 103.641 199.5 103.431 199.488 103.221C199.356 101.081 198.093 99.1794 196.231 98.2634C196.233 97.8411 196.111 97.443 195.86 97.0553C195.45 96.4223 194.804 96.0286 194.131 96.0023C193.526 95.979 192.967 96.2025 192.536 96.6308C192.138 97.026 191.907 97.5461 191.872 98.1083C189.616 99.0469 188.111 101.297 188.084 103.832C188.046 105.629 187.616 107.43 186.843 109.04C186.576 109.596 186.605 110.241 186.92 110.765C187.232 111.284 187.772 111.594 188.366 111.594ZM191.337 113.999H196.24C196.542 113.999 196.787 113.746 196.787 113.435C196.787 113.123 196.542 112.87 196.24 112.87H191.337C191.035 112.87 190.79 113.123 190.79 113.435C190.79 113.746 191.035 113.999 191.337 113.999Z" fill="#30CCCD"/>
<rect x="115.917" y="95" width="60" height="20" rx="10" fill="#F6F8FA"/>
<path fill-rule="evenodd" clip-rule="evenodd" d="M151.141 101.599C152.249 103.908 150.605 107.068 146.133 110.018L145.917 110.161L145.7 110.018C141.229 107.068 139.585 103.908 140.693 101.599C141.631 99.6447 144.194 99.233 145.917 100.795C147.64 99.233 150.203 99.6447 151.141 101.599Z" fill="#B2BFC8"/>
<rect x="30.917" y="130.081" width="275" height="10" rx="2" fill="#F6F8FA"/>
<rect x="30.917" y="145.081" width="275" height="10" rx="2" fill="#F6F8FA"/>
<path d="M265.532 172.529C264.617 172.93 263.642 173.196 262.625 173.326C263.671 172.701 264.469 171.719 264.845 170.536C263.869 171.118 262.792 171.529 261.645 171.758C260.719 170.772 259.399 170.161 257.959 170.161C255.165 170.161 252.915 172.429 252.915 175.209C252.915 175.609 252.949 175.993 253.032 176.359C248.837 176.155 245.125 174.144 242.631 171.081C242.195 171.836 241.94 172.701 241.94 173.632C241.94 175.379 242.84 176.929 244.182 177.826C243.371 177.81 242.575 177.575 241.902 177.204C241.902 177.219 241.902 177.239 241.902 177.259C241.902 179.712 243.651 181.749 245.945 182.218C245.534 182.33 245.086 182.384 244.622 182.384C244.299 182.384 243.972 182.366 243.666 182.298C244.32 184.296 246.175 185.766 248.382 185.813C246.665 187.156 244.485 187.966 242.125 187.966C241.711 187.966 241.314 187.947 240.917 187.896C243.152 189.338 245.802 190.161 248.659 190.161C257.945 190.161 263.022 182.469 263.022 175.801C263.022 175.578 263.014 175.363 263.003 175.149C264.005 174.438 264.846 173.55 265.532 172.529Z" fill="#B2BFC8"/>
<g clip-path="url(#clip0)">
<path d="M149.667 170H142.167C138.716 170 135.917 172.799 135.917 176.25V183.75C135.917 187.201 138.716 190 142.167 190H149.667C153.118 190 155.917 187.201 155.917 183.75V176.25C155.917 172.799 153.118 170 149.667 170ZM154.042 183.75C154.042 186.163 152.079 188.125 149.667 188.125H142.167C139.754 188.125 137.792 186.163 137.792 183.75V176.25C137.792 173.838 139.754 171.875 142.167 171.875H149.667C152.079 171.875 154.042 173.838 154.042 176.25V183.75Z" fill="#B2BFC8"/>
<path d="M145.917 175C143.156 175 140.917 177.239 140.917 180C140.917 182.761 143.156 185 145.917 185C148.678 185 150.917 182.761 150.917 180C150.917 177.239 148.678 175 145.917 175ZM145.917 183.125C144.194 183.125 142.792 181.722 142.792 180C142.792 178.276 144.194 176.875 145.917 176.875C147.639 176.875 149.042 178.276 149.042 180C149.042 181.722 147.639 183.125 145.917 183.125Z" fill="#B2BFC8"/>
<path d="M151.292 175.291C151.66 175.291 151.958 174.993 151.958 174.625C151.958 174.257 151.66 173.959 151.292 173.959C150.924 173.959 150.626 174.257 150.626 174.625C150.626 174.993 150.924 175.291 151.292 175.291Z" fill="#B2BFC8"/>
</g>
<path d="M203.417 170.452H188.417C187.038 170.452 185.917 171.574 185.917 172.952V187.952C185.917 189.331 187.038 190.452 188.417 190.452H203.417C204.796 190.452 205.917 189.331 205.917 187.952V172.952C205.917 171.574 204.796 170.452 203.417 170.452Z" fill="#B2BFC8"/>
<path d="M202.792 180.452H199.667V177.952C199.667 177.262 200.227 177.327 200.917 177.327H202.167V174.202H199.667C197.596 174.202 195.917 175.881 195.917 177.952V180.452H193.417V183.577H195.917V190.452H199.667V183.577H201.542L202.792 180.452Z" fill="white"/>
<path d="M93.0008 185.814L95.3575 188.17C96.3345 189.147 97.9168 189.147 98.893 188.171C99.8694 187.194 99.8694 185.612 98.8932 184.636L94.179 179.921C93.2028 178.945 91.6204 178.945 90.6441 179.921C90.3187 180.247 89.7911 180.247 89.4656 179.921C89.1402 179.596 89.1402 179.068 89.4656 178.743C91.0927 177.116 93.7304 177.116 95.3575 178.743L100.072 183.457C101.699 185.084 101.699 187.722 100.072 189.349C98.4447 190.977 95.8069 190.977 94.1789 189.349L91.8222 186.992C91.4968 186.667 91.4968 186.139 91.8222 185.814C92.1477 185.488 92.6754 185.488 93.0008 185.814Z" fill="#B2BFC8"/>
<path d="M82.5128 171.79C84.1399 170.163 86.7784 170.163 88.4055 171.79L91.233 174.618C91.5585 174.943 91.5585 175.471 91.233 175.796C90.9076 176.122 90.38 176.122 90.0545 175.796L87.227 172.969C86.2508 171.992 84.6676 171.992 83.6913 172.969C82.7151 173.945 82.7151 175.527 83.6913 176.504L88.8764 181.689C89.8526 182.665 91.435 182.665 92.4112 181.689C92.7366 181.363 93.2643 181.363 93.5897 181.689C93.9151 182.014 93.9151 182.542 93.5897 182.867C91.9626 184.494 89.3249 184.494 87.6978 182.867L82.5128 177.682C80.8857 176.055 80.8857 173.417 82.5128 171.79Z" fill="#B2BFC8"/>
<defs>
<filter id="filter0_d" x="0.916992" y="0" width="335" height="245.322" filterUnits="userSpaceOnUse" color-interpolation-filters="sRGB">
<feFlood flood-opacity="0" result="BackgroundImageFix"/>
<feColorMatrix in="SourceAlpha" type="matrix" values="0 0 0 0 0 0 0 0 0 0 0 0 0 0 0 0 0 0 127 0" result="hardAlpha"/>
<feOffset/>
<feGaussianBlur stdDeviation="5"/>
<feColorMatrix type="matrix" values="0 0 0 0 0.262745 0 0 0 0 0.309804 0 0 0 0 0.337255 0 0 0 0.08 0"/>
<feBlend mode="normal" in2="BackgroundImageFix" result="effect1_dropShadow"/>
<feBlend mode="normal" in="SourceGraphic" in2="effect1_dropShadow" result="shape"/>
</filter>
<clipPath id="clip0">
<rect width="20" height="20" fill="white" transform="translate(135.917 170)"/>
</clipPath>
</defs>
</svg>
